ffmpeg version 3.4.8-0ubuntu0.2 Copyright (c) 2000-2020 the FFmpeg developers
  built with gcc 7 (Ubuntu 7.5.0-3ubuntu1~18.04)
  configuration: --prefix=/usr --extra-version=0ubuntu0.2 --toolchain=hardened --libdir=/usr/lib/x86_64-linux-gnu --incdir=/usr/include/x86_64-linux-gnu --enable-gpl --disable-stripping --enable-avresample --enable-avisynth --enable-gnutls --enable-ladspa --enable-libass --enable-libbluray --enable-libbs2b --enable-libcaca --enable-libcdio --enable-libflite --enable-libfontconfig --enable-libfreetype --enable-libfribidi --enable-libgme --enable-libgsm --enable-libmp3lame --enable-libmysofa --enable-libopenjpeg --enable-libopenmpt --enable-libopus --enable-libpulse --enable-librubberband --enable-librsvg --enable-libshine --enable-libsnappy --enable-libsoxr --enable-libspeex --enable-libssh --enable-libtheora --enable-libtwolame --enable-libvorbis --enable-libvpx --enable-libwavpack --enable-libwebp --enable-libx265 --enable-libxml2 --enable-libxvid --enable-libzmq --enable-libzvbi --enable-omx --enable-openal --enable-opengl --enable-sdl2 --enable-libdc1394 --enable-libdrm --enable-libiec61883 --enable-chromaprint --enable-frei0r --enable-libopencv --enable-libx264 --enable-shared
  libavutil      55. 78.100 / 55. 78.100
  libavcodec     57.107.100 / 57.107.100
  libavformat    57. 83.100 / 57. 83.100
  libavdevice    57. 10.100 / 57. 10.100
  libavfilter     6.107.100 /  6.107.100
  libavresample   3.  7.  0 /  3.  7.  0
  libswscale      4.  8.100 /  4.  8.100
  libswresample   2.  9.100 /  2.  9.100
  libpostproc    54.  7.100 / 54.  7.100
[rawvideo @ 0x56295fb4ba20] Estimating duration from bitrate, this may be inaccurate
Input #0, rawvideo, from '../../SVC-Encoder-20220109T061506Z-001/SVC-Encoder/Dataset/RollerCoaster/6f_2x2/tile_yuv/f0_t3_480x480.yuv':
  Duration: 00:00:10.00, start: 0.000000, bitrate: 82944 kb/s
    Stream #0:0: Video: rawvideo (I420 / 0x30323449), yuv420p, 480x480, 82944 kb/s, 30 tbr, 30 tbn, 30 tbc
Stream mapping:
  Stream #0:0 -> #0:0 (rawvideo (native) -> h264 (libx264))
Press [q] to stop, [?] for help
[libx264 @ 0x56295fb58c60] using cpu capabilities: MMX2 SSE2Fast LZCNT SSSE3 SSE4.2 AVX
[libx264 @ 0x56295fb58c60] profile High, level 3.0
Output #0, rawvideo, to 'RollerCoaster_f0_t3_480x480_x264_QP_20.h264':
  Metadata:
    encoder         : Lavf57.83.100
    Stream #0:0: Video: h264 (libx264), yuv420p, 480x480, q=-1--1, 30 fps, 30 tbn, 30 tbc
    Metadata:
      encoder         : Lavc57.107.100 libx264
    Side data:
      cpb: bitrate max/min/avg: 0/0/0 buffer size: 0 vbv_delay: -1
frame=   84 fps=0.0 q=26.0 PSNR=Y:nan U:nan V:nan *:nan size=     256kB time=00:00:01.36 bitrate=1534.5kbits/s speed=2.68x    frame=  128 fps=127 q=26.0 PSNR=Y:nan U:nan V:nan *:nan size=     512kB time=00:00:02.83 bitrate=1480.3kbits/s speed= 2.8x    frame=  171 fps=113 q=26.0 PSNR=Y:nan U:nan V:nan *:nan size=     768kB time=00:00:04.26 bitrate=1474.6kbits/s speed=2.81x    frame=  216 fps=107 q=26.0 PSNR=Y:nan U:nan V:nan *:nan size=    1024kB time=00:00:05.76 bitrate=1454.7kbits/s speed=2.85x    frame=  262 fps=104 q=26.0 PSNR=Y:nan U:nan V:nan *:nan size=    1280kB time=00:00:07.30 bitrate=1436.4kbits/s speed=2.89x    frame=  300 fps= 88 q=26.0 LPSNR=Y:inf U:inf V:inf *:inf size=    1852kB time=00:00:09.93 bitrate=1527.6kbits/s speed=2.93x    
video:1852kB audio:0kB subtitle:0kB other streams:0kB global headers:0kB muxing overhead: 0.000000%
[libx264 @ 0x56295fb58c60] frame I:2     Avg QP:19.99  size: 34158  PSNR Mean Y:45.36 U:47.07 V:49.87 Avg:46.13 Global:46.11
[libx264 @ 0x56295fb58c60] frame P:76    Avg QP:21.11  size: 14387  PSNR Mean Y:43.53 U:46.56 V:49.17 Avg:44.53 Global:44.48
[libx264 @ 0x56295fb58c60] frame B:222   Avg QP:25.45  size:  3311  PSNR Mean Y:41.82 U:46.04 V:48.86 Avg:42.99 Global:42.97
[libx264 @ 0x56295fb58c60] consecutive B-frames:  1.0%  0.0%  3.0% 96.0%
[libx264 @ 0x56295fb58c60] mb I  I16..4:  9.1% 44.2% 46.7%
[libx264 @ 0x56295fb58c60] mb P  I16..4:  2.3%  8.6%  3.0%  P16..4: 25.4% 28.8% 18.0%  0.0%  0.0%    skip:13.9%
[libx264 @ 0x56295fb58c60] mb B  I16..4:  0.2%  0.8%  0.1%  B16..8: 32.0% 20.9%  4.2%  direct: 3.3%  skip:38.5%  L0:35.6% L1:37.1% BI:27.3%
[libx264 @ 0x56295fb58c60] 8x8 transform intra:61.1% inter:60.3%
[libx264 @ 0x56295fb58c60] coded y,uvDC,uvAC intra: 72.4% 82.6% 49.0% inter: 27.0% 21.9% 1.4%
[libx264 @ 0x56295fb58c60] i16 v,h,dc,p: 15% 27% 22% 35%
[libx264 @ 0x56295fb58c60] i8 v,h,dc,ddl,ddr,vr,hd,vl,hu:  7% 35% 12%  2% 13% 11% 11%  2%  6%
[libx264 @ 0x56295fb58c60] i4 v,h,dc,ddl,ddr,vr,hd,vl,hu: 10% 28% 10%  2% 19% 15% 10%  2%  4%
[libx264 @ 0x56295fb58c60] i8c dc,h,v,p: 35% 39% 12% 14%
[libx264 @ 0x56295fb58c60] Weighted P-Frames: Y:1.3% UV:0.0%
[libx264 @ 0x56295fb58c60] ref P L0: 58.1% 18.5% 18.5%  4.8%  0.1%
[libx264 @ 0x56295fb58c60] ref B L0: 91.6%  7.4%  1.0%
[libx264 @ 0x56295fb58c60] ref B L1: 95.8%  4.2%
[libx264 @ 0x56295fb58c60] PSNR Mean Y:42.274 U:46.177 V:48.945 Avg:43.401 Global:43.318 kb/s:1517.42
